<svg width="232" height="232" viewBox="0 0 232 232" fill="none" xmlns="http://www.w3.org/2000/svg">
<g id="logo_classact_sem_texto 1" clip-path="url(#clip0_11_55)">
<g id="layer1">
<g id="g2">
<g id="rect1 (Stroke)" filter="url(#filter0_d_11_55)">
<path fill-rule="evenodd" clip-rule="evenodd" d="M75.7406 11.363C68.7225 11.363 62.8912 17.3174 62.8912 24.8413V208.848C62.8912 216.372 68.7225 222.326 75.7406 222.326H156.494C163.512 222.326 169.344 216.372 169.344 208.848V24.8413C169.344 17.3174 163.512 11.363 156.494 11.363H75.7406ZM58.8291 24.8413C58.8291 15.2341 66.3222 7.3009 75.7406 7.3009H156.494C165.913 7.3009 173.406 15.2341 173.406 24.8413V208.848C173.406 218.455 165.913 226.388 156.494 226.388H75.7406C66.3222 226.388 58.8291 218.455 58.8291 208.848V24.8413Z" fill="#2565A1"/>
</g>
<g id="path1 (Stroke)" filter="url(#filter1_d_11_55)">
<path fill-rule="evenodd" clip-rule="evenodd" d="M56.6836 24.8425C57.1201 25.8758 56.6362 27.0673 55.6029 27.5038L12.4659 45.7241C11.374 46.1854 10.3589 46.8888 9.4847 47.8067C8.61012 48.725 7.89539 49.8386 7.39113 51.0893C6.88682 52.3401 6.60576 53.6968 6.56876 55.0804C6.53177 56.464 6.7398 57.8387 7.17742 59.1239L57.0967 205.729C57.4582 206.791 56.8905 207.945 55.8287 208.306C54.7668 208.668 53.6129 208.1 53.2514 207.038L3.33213 60.4332C2.73721 58.6861 2.45841 56.8309 2.50812 54.9718C2.55783 53.1128 2.93531 51.2778 3.62372 49.5703C4.31218 47.8628 5.30095 46.3096 6.54318 45.0053C7.78584 43.7005 9.25932 42.669 10.8854 41.9821L54.0223 23.7618C55.0557 23.3253 56.2471 23.8092 56.6836 24.8425Z" fill="#2565A1"/>
</g>
<g id="path2 (Stroke)" filter="url(#filter2_d_11_55)">
<path fill-rule="evenodd" clip-rule="evenodd" d="M60.3985 38.1903C60.3985 36.9364 61.415 35.9199 62.6689 35.9199H169.586C170.839 35.9199 171.856 36.9364 171.856 38.1903C171.856 39.4442 170.839 40.4607 169.586 40.4607H62.6689C61.415 40.4607 60.3985 39.4442 60.3985 38.1903Z" fill="#2565A1"/>
</g>
<g id="path3 (Stroke)" filter="url(#filter3_d_11_55)">
<path fill-rule="evenodd" clip-rule="evenodd" d="M59.6106 193.271C59.6106 192.018 60.6271 191.001 61.881 191.001H171.032C172.286 191.001 173.303 192.018 173.303 193.271C173.303 194.525 172.286 195.542 171.032 195.542H61.881C60.6271 195.542 59.6106 194.525 59.6106 193.271Z" fill="#2565A1"/>
</g>
<g id="path4" filter="url(#filter4_d_11_55)">
<path d="M115.992 217.648C120.551 217.648 124.248 213.796 124.248 209.043C124.248 204.291 120.551 200.438 115.992 200.438C111.432 200.438 107.735 204.291 107.735 209.043C107.735 213.796 111.432 217.648 115.992 217.648Z" fill="#2565A1"/>
</g>
<path id="path4 (Stroke)" fill-rule="evenodd" clip-rule="evenodd" d="M115.992 202.57C112.692 202.57 109.868 205.384 109.868 209.043C109.868 212.702 112.692 215.516 115.992 215.516C119.291 215.516 122.115 212.702 122.115 209.043C122.115 205.384 119.291 202.57 115.992 202.57ZM105.603 209.043C105.603 203.197 110.172 198.305 115.992 198.305C121.811 198.305 126.38 203.197 126.38 209.043C126.38 214.889 121.811 219.781 115.992 219.781C110.172 219.781 105.603 214.889 105.603 209.043Z" fill="#2565A1"/>
<g id="rect2" filter="url(#filter5_d_11_55)">
<path d="M132.381 22.4926H99.5888C99.1093 22.4926 98.7206 22.8977 98.7206 23.3975C98.7206 23.8973 99.1093 24.3024 99.5888 24.3024H132.381C132.86 24.3024 133.249 23.8973 133.249 23.3975C133.249 22.8977 132.86 22.4926 132.381 22.4926Z" fill="black"/>
</g>
<g id="rect2 (Stroke)" filter="url(#filter6_d_11_55)">
<path fill-rule="evenodd" clip-rule="evenodd" d="M97.2343 23.3975C97.2343 22.1355 98.231 21.0063 99.5888 21.0063H132.381C133.739 21.0063 134.735 22.1355 134.735 23.3975C134.735 24.6596 133.739 25.7887 132.381 25.7887H99.5888C98.231 25.7887 97.2343 24.6596 97.2343 23.3975Z" fill="#2565A1"/>
</g>
<g id="path5 (Stroke)" filter="url(#filter7_d_11_55)">
<path fill-rule="evenodd" clip-rule="evenodd" d="M175.551 24.8425C175.115 25.8758 175.598 27.0673 176.632 27.5038L219.769 45.7241C220.861 46.1854 221.876 46.8888 222.75 47.8067C223.625 48.725 224.339 49.8386 224.844 51.0893C225.348 52.3401 225.629 53.6968 225.666 55.0804C225.703 56.464 225.495 57.8387 225.057 59.1239L175.138 205.729C174.776 206.791 175.344 207.945 176.406 208.306C177.468 208.668 178.622 208.1 178.983 207.038L228.903 60.4332C229.497 58.6861 229.776 56.8309 229.727 54.9718C229.677 53.1128 229.299 51.2778 228.611 49.5703C227.922 47.8628 226.934 46.3096 225.691 45.0053C224.449 43.7004 222.975 42.669 221.349 41.9821L178.212 23.7618C177.179 23.3253 175.987 23.8092 175.551 24.8425Z" fill="#2565A1"/>
</g>
</g>
</g>
</g>
<defs>
<filter id="filter0_d_11_55" x="56.8291" y="5.3009" width="122.577" height="227.087" filterUnits="userSpaceOnUse" color-interpolation-filters="sRGB">
<feFlood flood-opacity="0" result="BackgroundImageFix"/>
<feColorMatrix in="SourceAlpha" type="matrix" values="0 0 0 0 0 0 0 0 0 0 0 0 0 0 0 0 0 0 127 0" result="hardAlpha"/>
<feOffset dx="2" dy="2"/>
<feGaussianBlur stdDeviation="2"/>
<feComposite in2="hardAlpha" operator="out"/>
<feColorMatrix type="matrix" values="0 0 0 0 0 0 0 0 0 0 0 0 0 0 0 0 0 0 0.1 0"/>
<feBlend mode="normal" in2="BackgroundImageFix" result="effect1_dropShadow_11_55"/>
<feBlend mode="normal" in="SourceGraphic" in2="effect1_dropShadow_11_55" result="shape"/>
</filter>
<filter id="filter1_d_11_55" x="0.502472" y="21.6012" width="62.7032" height="192.814" filterUnits="userSpaceOnUse" color-interpolation-filters="sRGB">
<feFlood flood-opacity="0" result="BackgroundImageFix"/>
<feColorMatrix in="SourceAlpha" type="matrix" values="0 0 0 0 0 0 0 0 0 0 0 0 0 0 0 0 0 0 127 0" result="hardAlpha"/>
<feOffset dx="2" dy="2"/>
<feGaussianBlur stdDeviation="2"/>
<feComposite in2="hardAlpha" operator="out"/>
<feColorMatrix type="matrix" values="0 0 0 0 0 0 0 0 0 0 0 0 0 0 0 0 0 0 0.1 0"/>
<feBlend mode="normal" in2="BackgroundImageFix" result="effect1_dropShadow_11_55"/>
<feBlend mode="normal" in="SourceGraphic" in2="effect1_dropShadow_11_55" result="shape"/>
</filter>
<filter id="filter2_d_11_55" x="58.3985" y="33.9199" width="119.457" height="12.5408" filterUnits="userSpaceOnUse" color-interpolation-filters="sRGB">
<feFlood flood-opacity="0" result="BackgroundImageFix"/>
<feColorMatrix in="SourceAlpha" type="matrix" values="0 0 0 0 0 0 0 0 0 0 0 0 0 0 0 0 0 0 127 0" result="hardAlpha"/>
<feOffset dx="2" dy="2"/>
<feGaussianBlur stdDeviation="2"/>
<feComposite in2="hardAlpha" operator="out"/>
<feColorMatrix type="matrix" values="0 0 0 0 0 0 0 0 0 0 0 0 0 0 0 0 0 0 0.1 0"/>
<feBlend mode="normal" in2="BackgroundImageFix" result="effect1_dropShadow_11_55"/>
<feBlend mode="normal" in="SourceGraphic" in2="effect1_dropShadow_11_55" result="shape"/>
</filter>
<filter id="filter3_d_11_55" x="57.6106" y="189.001" width="121.692" height="12.5408" filterUnits="userSpaceOnUse" color-interpolation-filters="sRGB">
<feFlood flood-opacity="0" result="BackgroundImageFix"/>
<feColorMatrix in="SourceAlpha" type="matrix" values="0 0 0 0 0 0 0 0 0 0 0 0 0 0 0 0 0 0 127 0" result="hardAlpha"/>
<feOffset dx="2" dy="2"/>
<feGaussianBlur stdDeviation="2"/>
<feComposite in2="hardAlpha" operator="out"/>
<feColorMatrix type="matrix" values="0 0 0 0 0 0 0 0 0 0 0 0 0 0 0 0 0 0 0.1 0"/>
<feBlend mode="normal" in2="BackgroundImageFix" result="effect1_dropShadow_11_55"/>
<feBlend mode="normal" in="SourceGraphic" in2="effect1_dropShadow_11_55" result="shape"/>
</filter>
<filter id="filter4_d_11_55" x="105.735" y="198.438" width="24.5126" height="25.2104" filterUnits="userSpaceOnUse" color-interpolation-filters="sRGB">
<feFlood flood-opacity="0" result="BackgroundImageFix"/>
<feColorMatrix in="SourceAlpha" type="matrix" values="0 0 0 0 0 0 0 0 0 0 0 0 0 0 0 0 0 0 127 0" result="hardAlpha"/>
<feOffset dx="2" dy="2"/>
<feGaussianBlur stdDeviation="2"/>
<feComposite in2="hardAlpha" operator="out"/>
<feColorMatrix type="matrix" values="0 0 0 0 0 0 0 0 0 0 0 0 0 0 0 0 0 0 0.1 0"/>
<feBlend mode="normal" in2="BackgroundImageFix" result="effect1_dropShadow_11_55"/>
<feBlend mode="normal" in="SourceGraphic" in2="effect1_dropShadow_11_55" result="shape"/>
</filter>
<filter id="filter5_d_11_55" x="96.7206" y="20.4926" width="42.5286" height="9.80984" filterUnits="userSpaceOnUse" color-interpolation-filters="sRGB">
<feFlood flood-opacity="0" result="BackgroundImageFix"/>
<feColorMatrix in="SourceAlpha" type="matrix" values="0 0 0 0 0 0 0 0 0 0 0 0 0 0 0 0 0 0 127 0" result="hardAlpha"/>
<feOffset dx="2" dy="2"/>
<feGaussianBlur stdDeviation="2"/>
<feComposite in2="hardAlpha" operator="out"/>
<feColorMatrix type="matrix" values="0 0 0 0 0 0 0 0 0 0 0 0 0 0 0 0 0 0 0.1 0"/>
<feBlend mode="normal" in2="BackgroundImageFix" result="effect1_dropShadow_11_55"/>
<feBlend mode="normal" in="SourceGraphic" in2="effect1_dropShadow_11_55" result="shape"/>
</filter>
<filter id="filter6_d_11_55" x="95.2343" y="19.0063" width="45.5012" height="12.7824" filterUnits="userSpaceOnUse" color-interpolation-filters="sRGB">
<feFlood flood-opacity="0" result="BackgroundImageFix"/>
<feColorMatrix in="SourceAlpha" type="matrix" values="0 0 0 0 0 0 0 0 0 0 0 0 0 0 0 0 0 0 127 0" result="hardAlpha"/>
<feOffset dx="2" dy="2"/>
<feGaussianBlur stdDeviation="2"/>
<feComposite in2="hardAlpha" operator="out"/>
<feColorMatrix type="matrix" values="0 0 0 0 0 0 0 0 0 0 0 0 0 0 0 0 0 0 0.1 0"/>
<feBlend mode="normal" in2="BackgroundImageFix" result="effect1_dropShadow_11_55"/>
<feBlend mode="normal" in="SourceGraphic" in2="effect1_dropShadow_11_55" result="shape"/>
</filter>
<filter id="filter7_d_11_55" x="173.029" y="21.6012" width="62.7032" height="192.814" filterUnits="userSpaceOnUse" color-interpolation-filters="sRGB">
<feFlood flood-opacity="0" result="BackgroundImageFix"/>
<feColorMatrix in="SourceAlpha" type="matrix" values="0 0 0 0 0 0 0 0 0 0 0 0 0 0 0 0 0 0 127 0" result="hardAlpha"/>
<feOffset dx="2" dy="2"/>
<feGaussianBlur stdDeviation="2"/>
<feComposite in2="hardAlpha" operator="out"/>
<feColorMatrix type="matrix" values="0 0 0 0 0 0 0 0 0 0 0 0 0 0 0 0 0 0 0.1 0"/>
<feBlend mode="normal" in2="BackgroundImageFix" result="effect1_dropShadow_11_55"/>
<feBlend mode="normal" in="SourceGraphic" in2="effect1_dropShadow_11_55" result="shape"/>
</filter>
<clipPath id="clip0_11_55">
<rect width="232" height="232" fill="white"/>
</clipPath>
</defs>
</svg>
